<svg xmlns="http://www.w3.org/2000/svg" viewBox="0 0 20 20"><title>E02750DC-7714-4F02-BC4A-37104D300AD2</title><path d="M19 3.7c0-.1 0-.2-.1-.2C18.4 2 15.5.4 9.9.4S1.3 1.9.9 3.5c0 .1-.1.2-.1.3v12.7c0 .1 0 .2.1.2.5 1.8 4.3 3.1 9 3.1 4.8 0 8.5-1.3 9-3.1 0-.1.1-.2.1-.3V3.7zm-1.2 8.2v.4c0 .1 0 .1-.1.2 0 .1-.1.1-.1.2l-.1.1-.1.1c-.1 0-.1.1-.2.1s-.2.1-.2.1h-.1c-.1.1-.2.1-.4.2-.1.1-.3.1-.4.2-.8.3-1.8.6-3 .7-.2 0-.5.1-.8.1h-.1c-.2 0-.4 0-.6.1H8.3c-.2 0-.4 0-.7-.1h-.1c-.2 0-.5-.1-.7-.1-1.1-.2-2.2-.4-3-.7-.1-.1-.3-.1-.5-.2-.1-.1-.2-.1-.3-.2h-.1c-.1 0-.2-.1-.3-.2h-.1c-.1 0-.1-.1-.2-.1l-.3-.3c0-.1-.1-.1-.1-.2V9.8c1.6 1.1 4.4 1.7 7.9 1.7s6.3-.6 7.9-1.7v2.1zm0-4.1v.4c0 .1 0 .1-.1.2 0 .1-.1.1-.1.2l-.1.1s-.1 0-.1.1c-.1 0-.1.1-.2.1l-.1.1c0-.1-.1 0-.2 0h-.1c-.1.1-.2.1-.4.2-.1.1-.3.1-.4.2-.8.3-1.8.6-3 .7-.2 0-.5.1-.7.1h-.1c-.2 0-.4 0-.6.1H8.3c-.2 0-.4 0-.7-.1h-.1c-.2 0-.5-.1-.7-.1-1.1-.2-2.2-.4-3-.7-.1 0-.3-.1-.5-.2-.1 0-.2-.1-.3-.1L2.9 9s-.1-.1-.2-.1h-.1c-.1 0-.1-.1-.2-.1 0-.2-.1-.3-.2-.4 0-.1-.1-.1-.1-.2V8H2V5.8c.1 0 .1.1.2.1h.1c.2.1.3.2.5.3.1.1.3.1.4.2h.1c.2.1.4.1.5.2H4c.1 0 .3.1.5.1h.2c.1.2.3.3.6.3h.1c.5.1 1 .2 1.5.2h.2c.3 0 .5.1.8.1h4.3c.3 0 .6 0 .8-.1h.2c.3 0 .6-.1.8-.1.2 0 .4-.1.6-.1h.1c.2 0 .4-.1.7-.2h.2c.2 0 .3-.1.5-.1l.2-.1c.2-.1.4-.1.5-.2h.1l.6-.3c-.2-.1 0-.1.1-.2l.1-.1c.1 0 .1-.1.2-.1v2.1zM2 14c1.6 1.1 4.4 1.7 7.9 1.7s6.3-.6 7.9-1.7v2.3c-.2.9-3.2 2.2-7.9 2.2-4.6 0-7.7-1.3-7.9-2.2V14zm7.9-7.7C5.1 6.3 2 4.9 2 3.9 2 3 5.1 1.6 9.9 1.6c4.8 0 7.9 1.4 7.9 2.3 0 1-3 2.4-7.9 2.4zm8.1 6z"/></svg>