<svg data-name="Layer 1" xmlns="http://www.w3.org/2000/svg" viewBox="0 0 11.08 13.5"><title>garbage</title><path d="M3.74 2.98a.49.49 0 0 0-.5.48V11a.47.47 0 0 0 .14.33.51.51 0 0 0 .36.15.49.49 0 0 0 .5-.48V3.46a.49.49 0 0 0-.5-.48zm3.73 0a.49.49 0 0 0-.5.48V11a.47.47 0 0 0 .14.33.51.51 0 0 0 .36.15.49.49 0 0 0 .5-.48V3.46a.49.49 0 0 0-.5-.48zm-1.87 0a.49.49 0 0 0-.5.48V11a.47.47 0 0 0 .14.33.51.51 0 0 0 .36.15.49.49 0 0 0 .5-.48V3.46a.49.49 0 0 0-.5-.48z"/><path d="M10.61 1.32H7.73a1.8 1.8 0 0 0-.44-1A1.19 1.19 0 0 0 6.42 0h-2.2a1.17 1.17 0 0 0-.88.36 1.82 1.82 0 0 0-.44 1H.47a.47.47 0 1 0 0 .89h.21l.41 9.9a1.32 1.32 0 0 0 1.33 1.34h6.23a1.31 1.31 0 0 0 1.32-1.32l.43-9.92h.21a.47.47 0 0 0 0-.94zm-6.64-.3a.25.25 0 0 1 .2-.07h2.26a.25.25 0 0 1 .19.08.71.71 0 0 1 .15.31h-2.9a.73.73 0 0 1 .1-.32zm4.68 11.54H2.42a.39.39 0 0 1-.39-.43l-.41-9.88h7.83l-.41 9.94a.36.36 0 0 1-.39.37z"/></svg>