<svg xmlns="http://www.w3.org/2000/svg" viewBox="0 0 22 22"><title>11B4AECE-13D7-45C4-9F12-424D3A8585EA</title><path d="M16.9 10.5h-.2c-.3-1.1-1.3-2-2.5-2-1.1 0-2.1.7-2.5 1.7-.2-.1-.3-.1-.5-.1s-.3 0-.5.1c-.4-1-1.4-1.7-2.5-1.7-1.3 0-2.4.9-2.6 2.2h-.3c-.2 0-.5.2-.5.4s.2.4.5.4h.2c.2 1.2 1.3 2.2 2.6 2.2 1.4 0 2.6-1.1 2.6-2.5.2-.3.5-.3.7 0 .1 1.4 1.3 2.5 2.7 2.5 1.4 0 2.5-1 2.6-2.4h.2c.2 0 .5-.2.5-.4-.1-.2-.3-.4-.5-.4zm-2.8-1c1 0 1.7.8 1.7 1.7 0 1-.8 1.7-1.7 1.7-1 0-1.8-.8-1.8-1.7s.8-1.7 1.8-1.7zm-6 0c1 0 1.7.8 1.7 1.7 0 1-.8 1.7-1.7 1.7-1 0-1.8-.8-1.8-1.7s.8-1.7 1.8-1.7z"/><path d="M11.1.8C5.3.8.6 5.5.6 11.3s4.7 10.5 10.5 10.5 10.5-4.7 10.5-10.5S16.9.8 11.1.8zm0 20c-5.2 0-9.5-4.3-9.5-9.5s4.3-9.5 9.5-9.5 9.5 4.3 9.5 9.5-4.3 9.5-9.5 9.5z"/></svg>