<svg data-name="Layer 1" xmlns="http://www.w3.org/2000/svg" viewBox="0 0 16.86 20.5"><title>locked</title><path d="M14.63 7.5V5.62c0-3.1-2.78-5.62-6.2-5.62S2.25 2.52 2.25 5.62V7.5a2.92 2.92 0 0 0-2.23 2.84v7.24a2.94 2.94 0 0 0 2.94 2.93h11a2.94 2.94 0 0 0 2.94-2.93v-7.25a2.92 2.92 0 0 0-2.27-2.83zM3.48 7.41V5.62a4.7 4.7 0 0 1 5-4.38 4.7 4.7 0 0 1 5 4.38v1.79zm12.15 2.93v7.24a1.69 1.69 0 0 1-1.71 1.67h-11a1.69 1.69 0 0 1-1.67-1.68v-7.24a1.69 1.69 0 0 1 1.69-1.68h11a1.69 1.69 0 0 1 1.68 1.68z"/><path d="M8.43 10.37a1.74 1.74 0 0 0-1.74 1.73v2.22a1.74 1.74 0 0 0 3.47 0V12.1a1.74 1.74 0 0 0-1.73-1.73zm.49 1.73v2.22a.5.5 0 0 1-1 0V12.1a.5.5 0 0 1 1 0z"/></svg>