<svg id="Layer_1" data-name="Layer 1" xmlns="http://www.w3.org/2000/svg" viewBox="0 0 327.2 90.68">
  <title>logo</title>
  <g>
    <path d="M73,7.55H64a4,4,0,0,0-4,4v28.2H17V11.55a4,4,0,0,0-4-4H4a4,4,0,0,0-4,4V83.22a4,4,0,0,0,4,4h9a4,4,0,0,0,4-4V55.75H60V83.22a4,4,0,0,0,4,4h9a4,4,0,0,0,4-4V11.55A4,4,0,0,0,73,7.55Z" transform="translate(0 0)"/>
    <path d="M327.2,9.33c0-5.57-2.72-9.33-8.94-9.33C307.9,0,307,15,306.48,22.67c-.91,13.08-2.07,26.17-3.11,39.25l3.24.52C310.49,51.17,327.2,18,327.2,9.33Z" transform="translate(0 0)"/>
    <path d="M301.81,71.5a9.59,9.59,0,1,0,9.59,9.59A9.91,9.91,0,0,0,301.81,71.5Z" transform="translate(0 0)"/>
    <rect x="94.6" y="39.89" width="82.93" height="15" rx="4" ry="4"/>
    <path d="M272.52,75.49,244.4,47.37l28.08-28.08a4,4,0,0,0,0-5.66h0l-6.36-6.36a4,4,0,0,0-5.66,0h0L232.38,35.35,204.27,7.24a4,4,0,0,0-5.66,0h0l-6.36,6.36a4,4,0,0,0,0,5.66h0l28.11,28.11L192.28,75.45a4,4,0,0,0,0,5.66h0l6.36,6.36a4,4,0,0,0,5.66,0h0l28.08-28.08L260.5,87.51a4,4,0,0,0,5.66,0h0l6.36-6.36a4,4,0,0,0,0-5.66Z" transform="translate(0 0)"/>
    <rect x="94.6" y="9.03" width="82.93" height="15" rx="4" ry="4"/>
    <rect x="94.6" y="70.75" width="82.93" height="15" rx="4" ry="4"/>
  </g>
</svg>
