<svg data-name="Layer 1" xmlns="http://www.w3.org/2000/svg" viewBox="0 0 11.49 11.5"><title>pin</title><path d="M11.35 3.25L8.22.13A.45.45 0 0 0 7.84 0a.46.46 0 0 0-.34.18 2.56 2.56 0 0 0-.48 1.66L4.14 4.25a5.32 5.32 0 0 0-3.86 0 .46.46 0 0 0-.28.33.46.46 0 0 0 .12.42l2.85 2.87-2.64 2.64a.46.46 0 0 0 0 .61l.1.11a.46.46 0 0 0 .55-.07l2.64-2.64 2.85 2.85a.46.46 0 0 0 .33.13.46.46 0 0 0 .42-.25 5.66 5.66 0 0 0 0-3.89l2.46-2.9a2.49 2.49 0 0 0 1.64-.48.46.46 0 0 0 0-.64zm-2.23.4L6.33 6.98a.47.47 0 0 0-.11.49 5.21 5.21 0 0 1 .3 2.7l-5.2-5.24a4.47 4.47 0 0 1 2.7.3.46.46 0 0 0 .5-.06l3.27-2.78a.46.46 0 0 0 .16-.42 1.65 1.65 0 0 1 0-.73l2.27 2.26a2.16 2.16 0 0 1-.71 0 .47.47 0 0 0-.39.2z"/></svg>