<svg xmlns="http://www.w3.org/2000/svg" viewBox="0 0 22 22"><title>85873508-E506-48D8-BA37-AB01BF8BE3C8</title><path d="M21.2 10.8C21.2 5.2 16.6.6 11 .6 5.3.7.8 5.2.8 10.8c0 2.7 1.1 5.2 3 7.1l.5.5c.7.6 1.5 1.1 2.4 1.6h.1c.1 0 .2.1.3.1l.4.2c.1 0 .2.1.2.1l.7.2c.3.1.6.2 1 .2h.4c.2 0 .4 0 .5.1h1.9c.3 0 .7-.1 1-.2.3-.1.6-.2.9-.2l.2-.1c.1 0 .2-.1.3-.1l.9-.4c.8-.4 1.6-.9 2.3-1.5l.5-.5c1.9-1.8 2.9-4.3 2.9-7.1zM11 16.4c2 0 3.8.6 5.5 1.7-.1.1-.2.1-.3.2H16c-.2.1-.3.2-.5.3l-.1.1-.6.3h-.1c-.2.1-.4.2-.7.3-.5.2-.9.3-1.4.4h-.1c-.2 0-.5.1-.7.1h-1.6c-.2 0-.5 0-.7-.1h-.1c-.2 0-.5-.1-.7-.2-.2-.1-.5-.1-.7-.2h-.1c-.4-.1-.9-.3-1.3-.6l-.1-.1c-.2-.1-.4-.2-.5-.3l-.1-.1c-.1-.1-.2-.1-.3-.2 1.6-1.1 3.4-1.6 5.4-1.6zm9.1-5.6c0 1.5-.4 3-1.1 4.4 0-.2-.1-.4-.2-.5l-.6-.4c-.3-.2-.6-.1-.8.2-.1.1-.1.3-.1.4 0 .1.1.3.2.3l.6.3c.1.1.2.1.3.1h.2c-.4.6-.8 1.1-1.3 1.5-1.8-1.3-4.1-2.1-6.3-2.1-2.3 0-4.5.7-6.3 2-.5-.5-1-1.1-1.3-1.7.1 0 .2.1.3.1.1 0 .2 0 .3-.1l.6-.3c.3-.2.4-.5.2-.8-.2-.3-.5-.4-.8-.2l-.6.3c-.3.3-.4.5-.4.6v.1c-.7-1.3-1.1-2.7-1.1-4.2 0-5 4.1-9 9.1-9s9.1 4.1 9.1 9c0-.3-.3-.6-.6-.6h-.7c-.3 0-.6.3-.6.6s.3.6.6.6h.7c.3 0 .6-.2.6-.6z"/><path d="M14.4 6.4L11.7 9c-.6-.3-1.3-.2-1.8.3-.3.3-.5.7-.5 1.1 0 .9.7 1.6 1.6 1.6.9 0 1.6-.7 1.6-1.6 0-.2 0-.4-.1-.5l2.7-2.7c.1-.1.2-.3.2-.4 0-.2-.1-.3-.2-.4-.2-.2-.6-.2-.8 0zM10.5 10l.2.2c.1-.1.2-.1.3-.1.2 0 .4.2.4.4 0 .1 0 .2-.1.3-.2.2-.4.2-.6 0-.1-.1-.1-.2-.1-.3 0-.1 0-.2.1-.3l-.2-.2zm.5-6.2c.3 0 .6-.3.6-.6v-.6c0-.3-.3-.6-.6-.6s-.6.3-.6.6v.7c0 .3.3.5.6.5zm7.8 2.6c-.2-.3-.5-.4-.8-.3l-.6.3-.3.3c0 .1 0 .3.1.4.1.2.3.3.5.3.1 0 .2 0 .3-.1l.6-.3c.2 0 .3-.4.2-.6zm-16.3 5h.7c.3 0 .6-.3.6-.6s-.3-.6-.6-.6h-.7c-.3 0-.6.3-.6.6 0 .4.3.6.6.6zm13-8.2c-.3-.2-.6-.1-.8.2l-.3.6c-.1.1-.1.3-.1.4 0 .1.1.3.3.4.1.1.2.1.3.1.2 0 .4-.1.5-.3l.4-.6c.1-.2.1-.5-.1-.7l-.2-.1zm-8.2.2c-.2-.3-.6-.4-.8-.2-.2.1-.3.2-.3.3s0 .3.1.4l.3.6c.1.2.3.3.5.3.1 0 .2 0 .3-.1.2-.1.3-.4.2-.7l-.3-.6zM4.5 6.6l-.6-.3c-.2-.2-.6-.1-.8.2 0 .1-.1.3 0 .4s.1.3.3.4l.6.3c0 .1.1.1.2.1h.1c.2 0 .3-.1.4-.3.1-.1.1-.3.1-.4-.1-.2-.2-.3-.3-.4zm-1 .5z"/></svg>