<svg width="27" height="28" viewBox="0 0 27 28" xmlns="http://www.w3.org/2000/svg"><title>001-team</title><g transform="translate(.09 .09)" fill-rule="nonzero" fill="#FFF"><circle cx="23.508" cy="18.287" r="1"/><circle cx="2.919" cy="18.287" r="1"/><path d="M26.357 26.61h-4.645l-.029-13.292a.54.54 0 0 0-.54-.54h-.002a.54.54 0 0 0-.54.542l.029 13.29h-1.571l-.014-5.914a.54.54 0 0 0-.541-.54h-.001a.54.54 0 0 0-.54.543l.014 5.912h-1.314v-7.16c1.532-.135 2.735-1.393 2.735-2.92v-5.243c0-.834-.176-1.65-.515-2.406a4.478 4.478 0 0 1 2.828 1.245 4.193 4.193 0 0 1 1.302 3.028l.01 3.078c0 .298.243.54.54.54h.003a.541.541 0 0 0 .539-.544l-.01-3.077a5.266 5.266 0 0 0-1.632-3.803 5.53 5.53 0 0 0-2.088-1.268c.55-.523.893-1.261.89-2.078a2.866 2.866 0 0 0-2.861-2.856h-.007a2.871 2.871 0 0 0-1.32.325.541.541 0 1 0 .502.958 1.782 1.782 0 0 1 2.605 1.575 1.782 1.782 0 0 1-1.777 1.784.54.54 0 0 0-.068.005l-.087.004a6.156 6.156 0 0 0-3.128-2.24 3.166 3.166 0 0 0 1.084-2.384A3.177 3.177 0 0 0 13.034 0 3.177 3.177 0 0 0 9.86 3.174c0 .996.462 1.885 1.182 2.468A6.15 6.15 0 0 0 8.16 7.795a5.73 5.73 0 0 0-.378-.005l-.03-.001c-.981 0-1.78-.799-1.78-1.78a1.782 1.782 0 0 1 2.63-1.566.541.541 0 0 0 .516-.95A2.866 2.866 0 0 0 4.89 6.008c0 .859.381 1.63.983 2.156-2.045.788-3.495 2.732-3.495 4.998v3.068a.541.541 0 1 0 1.082 0v-3.068c0-2.243 1.791-4.089 4.064-4.275a5.872 5.872 0 0 0-.513 2.4v5.242c0 1.558 1.252 2.836 2.827 2.929v7.152H8.364v-5.914a.541.541 0 1 0-1.082 0v5.914h-1.33V13.324a.541.541 0 1 0-1.082 0v13.287H.579a.541.541 0 1 0 0 1.082h25.778a.541.541 0 1 0 0-1.082zM10.942 3.175c0-1.154.939-2.092 2.092-2.092s2.091.938 2.091 2.092a2.094 2.094 0 0 1-2.091 2.091 2.094 2.094 0 0 1-2.092-2.091zm5.18 7.755a.541.541 0 0 0-.54.541v15.14h-1.927v-7.525a.541.541 0 1 0-1.082 0v7.526h-1.654V11.47a.541.541 0 1 0-1.081 0v6.903c-.978-.089-1.745-.882-1.745-1.844v-5.242c0-.936.272-1.848.787-2.635.944-1.444 2.561-2.306 4.325-2.306 1.766 0 3.384.864 4.328 2.312.512.786.783 1.695.783 2.629v5.242c0 .932-.72 1.705-1.653 1.834V11.47a.54.54 0 0 0-.54-.54z"/></g></svg>