<svg data-name="Layer 1" xmlns="http://www.w3.org/2000/svg" viewBox="0 0 20.5 20.43"><title>user</title><path d="M20.5 10.25a10.25 10.25 0 1 0-17.37 7.37l.54.45h.07c.18.15.36.29.58.45l.15.1c.2.14.4.27.61.39l.14.08c.23.13.46.25.75.39a10.14 10.14 0 0 0 2.48.79h.07a8 8 0 0 1 .82.11h1.91a3 3 0 0 0 .81-.11h.07a10.16 10.16 0 0 0 2.45-.77h.08q.34-.16.67-.35l.17-.09.59-.37.21-.15.52-.4.62-.53a10.28 10.28 0 0 0 3.06-7.36zM7.35 18.79l-.66-.25-.61-.29-.11.22v-.22l-.53-.31-.19-.14-.21-.14 2.64-1.41a1.79 1.79 0 0 0 .93-1.57v-1.43l-.14-.17a5.78 5.78 0 0 1-1-2.15l-.06-.24-.21-.14a.35.35 0 0 1-.17-.3V9a.34.34 0 0 1 .12-.26l.2-.18V6.35a1.93 1.93 0 0 1 .45-1.39 3.2 3.2 0 0 1 2.45-.82 3.21 3.21 0 0 1 2.48.81 2 2 0 0 1 .45 1.43v2.18l.2.18a.34.34 0 0 1 .12.26v1.25a.36.36 0 0 1-.25.33l-.3.09-.1.3a6.49 6.49 0 0 1-.87 1.76 3.63 3.63 0 0 1-.25.32l-.15.17v1.44a1.78 1.78 0 0 0 1 1.6l2.76 1.38-.16.1-.18.11-.51.29-.12.06a9.16 9.16 0 0 1-1.28.54l-.67.19h-.07l-.65.13-.67.08h-.12a9.11 9.11 0 0 1-1.37 0h-.07l-.7-.09a9.34 9.34 0 0 1-1.42-.26zm5.45-4.07v-1l.18-.24a7.7 7.7 0 0 0 1-1.83 1.56 1.56 0 0 0 .8-1.37V9a1.57 1.57 0 0 0-.32-.95V6.47a3.19 3.19 0 0 0-.75-2.32 4.33 4.33 0 0 0-3.46-1.24 4.33 4.33 0 0 0-3.41 1.24 3.18 3.18 0 0 0-.75 2.3v1.6a1.57 1.57 0 0 0-.32.95v1.25a1.57 1.57 0 0 0 .48 1.21 7.14 7.14 0 0 0 1.1 2.27v1a.56.56 0 0 1-.29.49l-2.81 1.53-.13.08a9 9 0 1 1 12.72-.43l-.43.43-.19-.1-3.11-1.48a.56.56 0 0 1-.31-.53zm-6.91 3.71zm3.55 1.82z"/></svg>