<svg xmlns="http://www.w3.org/2000/svg" viewBox="0 0 21 14"><title>F7C0596C-B9C9-411E-A342-0F723C44A1DC</title><path d="M20.1 1h-4.4v.4s.1.1.2.1h.6c.4 0 .6.1.7.2.2.1.2.4.1.7l-3.7 8.7h-.1L11 6.5l.1-.1L13 2.8c.2-.4.4-.7.5-.9.2-.3.3-.3.8-.4.1 0 .2 0 .2-.1V1h-3.3v.5h.3c.4 0 .6.1.7.2 0 .2.1.3-.2.9l-1.5 2.9-1.3-2.7c-.4-.9-.5-1.2.1-1.2h.2c.1 0 .1 0 .1-.1V1H6.1v.4c0 .1.1.1.3.1.6.1.6.1 1.2 1.4l.4.7 1.4 2.7s.2.3.4.9l-2 4h-.1s-3.1-6.6-4-8.8c-.2-.2-.3-.4-.3-.5 0-.2.2-.3.6-.4h.6c.1 0 .3 0 .3-.1V1H.1v.4c0 .1.1.1.3.1.5 0 .8.1.9.2.1.1.3.4.5 1 1.1 2.7 3.5 7.6 4.7 10.4.3.8.8.9 1.3 0l2.4-4.8c.7 1.6 1.7 3.8 2.2 4.8.4.8.8.9 1.3 0 1.2-2.6 4.5-10.3 4.5-10.3.1-.4.3-.7.6-.9.3-.2.6-.3 1.2-.4.1 0 .2 0 .2-.1l-.1-.4z"/></svg>